<svg width="18" height="22" viewBox="0 0 18 22" fill="none" xmlns="http://www.w3.org/2000/svg">
<path d="M9.31851 16.5173C10.805 16.5173 12.072 15.9935 13.1197 14.9458C14.1674 13.8981 14.6912 12.6311 14.6912 11.1446C14.6912 9.65815 14.1674 8.39108 13.1197 7.3434C12.072 6.29572 10.805 5.77188 9.31851 5.77188C7.83206 5.77188 6.56499 6.29572 5.51731 7.3434C4.46963 8.39108 3.9458 9.65815 3.9458 11.1446C3.9458 12.6311 4.46963 13.8981 5.51731 14.9458C6.56499 15.9935 7.83206 16.5173 9.31851 16.5173ZM11.0915 13.6698L8.78124 11.3595V7.92097H9.85578V10.9297L11.8437 12.9176L11.0915 13.6698ZM9.31851 21.89C6.82915 21.2632 4.77409 19.835 3.15332 17.6053C1.53255 15.3756 0.722168 12.8997 0.722168 10.1775V3.6228L9.31851 0.39917L17.9148 3.6228V10.1775C17.9148 12.8997 17.1045 15.3756 15.4837 17.6053C13.8629 19.835 11.8079 21.2632 9.31851 21.89ZM9.31851 19.6335C11.181 19.0425 12.7212 17.8605 13.939 16.0875C15.1569 14.3145 15.7658 12.3445 15.7658 10.1775V5.1003L9.31851 2.68257L2.87125 5.1003V10.1775C2.87125 12.3445 3.48016 14.3145 4.69797 16.0875C5.91579 17.8605 7.45597 19.0425 9.31851 19.6335Z" fill="white"/>
</svg>
