<svg width="19" height="18" viewBox="0 0 19 18" fill="none" xmlns="http://www.w3.org/2000/svg">
<mask id="mask0_677_207" style="mask-type:alpha" maskUnits="userSpaceOnUse" x="0" y="-1" width="19" height="19">
<rect x="0.823608" y="-0.000305176" width="17.8875" height="17.8875" fill="#D9D9D9"/>
</mask>
<g mask="url(#mask0_677_207)">
<path d="M15.5261 15.6562L10.8306 10.9607C10.458 11.2589 10.0294 11.4949 9.54498 11.6688C9.06053 11.8427 8.54502 11.9296 7.99846 11.9296C6.64448 11.9296 5.49856 11.4607 4.56071 10.5229C3.62286 9.585 3.15393 8.43909 3.15393 7.0851C3.15393 5.73112 3.62286 4.5852 4.56071 3.64735C5.49856 2.7095 6.64448 2.24057 7.99846 2.24057C9.35245 2.24057 10.4984 2.7095 11.4362 3.64735C12.3741 4.5852 12.843 5.73112 12.843 7.0851C12.843 7.63166 12.756 8.14717 12.5821 8.63162C12.4082 9.11608 12.1722 9.54463 11.8741 9.91729L16.5696 14.6128L15.5261 15.6562ZM7.99846 10.439C8.9301 10.439 9.722 10.1129 10.3741 9.46078C11.0263 8.80864 11.3524 8.01674 11.3524 7.0851C11.3524 6.15346 11.0263 5.36157 10.3741 4.70942C9.722 4.05727 8.9301 3.73119 7.99846 3.73119C7.06682 3.73119 6.27493 4.05727 5.62278 4.70942C4.97063 5.36157 4.64456 6.15346 4.64456 7.0851C4.64456 8.01674 4.97063 8.80864 5.62278 9.46078C6.27493 10.1129 7.06682 10.439 7.99846 10.439Z" fill="#070707"/>
</g>
</svg>
